<svg width="30" height="30" viewBox="0 0 30 30" fill="none" xmlns="http://www.w3.org/2000/svg">
<path d="M15.1187 7.03563C15.6344 6.52009 16.3337 6.23047 17.0629 6.23047C17.7921 6.23047 18.4915 6.52009 19.0072 7.03563L24.3408 12.3693C24.8563 12.885 25.146 13.5843 25.146 14.3135C25.146 15.0427 24.8563 15.7421 24.3408 16.2578L16.7783 23.8203C16.2627 24.336 15.5633 24.6259 14.8341 24.626H11.0404C10.3111 24.6259 9.61178 24.336 9.09618 23.8203L5.65868 20.3828C5.14313 19.8671 4.85352 19.1677 4.85352 18.4385C4.85352 17.7093 5.14313 17.01 5.65868 16.4943L15.1173 7.03563H15.1187ZM16.0262 22.6281L8.7483 15.3503L6.63218 17.4664C6.37441 17.7242 6.2296 18.0739 6.2296 18.4385C6.2296 18.8031 6.37441 19.1528 6.63218 19.4106L10.0697 22.8481C10.3275 23.106 10.6772 23.2509 11.0418 23.251H14.8354C15.2001 23.2509 15.5498 23.106 15.8076 22.8481L16.0262 22.6281Z" fill="#666666"/>
</svg>
